<mxfile host="app.diagrams.net" modified="2024-07-08T09:29:28.988Z" agent="Mozilla/5.0 (Windows NT 10.0; Win64; x64) AppleWebKit/537.36 (KHTML, like Gecko) Chrome/126.0.0.0 Safari/537.36 Edg/126.0.0.0" etag="Us1yiiib8A1_A_2quHAV" version="24.6.4" type="github">
  <diagram name="StateMachine" id="xBlmMDLpwzvl6hBvEHHj">
    <mxGraphModel dx="1221" dy="587" grid="1" gridSize="10" guides="1" tooltips="1" connect="1" arrows="1" fold="1" page="1" pageScale="1" pageWidth="827" pageHeight="1169" math="0" shadow="0">
      <root>
        <mxCell id="0" />
        <mxCell id="1" parent="0" />
        <mxCell id="e9e4DZNa8HIGRZbQgJC5-29" value="main: Initialize System" style="rounded=1;whiteSpace=wrap;html=1;fillColor=#FFD700;" vertex="1" parent="1">
          <mxGeometry x="20" y="20" width="160" height="60" as="geometry" />
        </mxCell>
        <mxCell id="e9e4DZNa8HIGRZbQgJC5-30" value="Create Task: StateMachine" style="rounded=1;whiteSpace=wrap;html=1;fillColor=#ADD8E6;" vertex="1" parent="1">
          <mxGeometry x="220" y="20" width="160" height="60" as="geometry" />
        </mxCell>
        <mxCell id="e9e4DZNa8HIGRZbQgJC5-31" style="edgeStyle=elbowEdgeStyle;rounded=1;" edge="1" parent="1" source="e9e4DZNa8HIGRZbQgJC5-29" target="e9e4DZNa8HIGRZbQgJC5-30">
          <mxGeometry relative="1" as="geometry" />
        </mxCell>
        <mxCell id="e9e4DZNa8HIGRZbQgJC5-32" value="Create Task: EventGenerator" style="rounded=1;whiteSpace=wrap;html=1;fillColor=#ADD8E6;" vertex="1" parent="1">
          <mxGeometry x="220" y="100" width="160" height="60" as="geometry" />
        </mxCell>
        <mxCell id="e9e4DZNa8HIGRZbQgJC5-33" style="edgeStyle=elbowEdgeStyle;rounded=1;" edge="1" parent="1" source="e9e4DZNa8HIGRZbQgJC5-29" target="e9e4DZNa8HIGRZbQgJC5-32">
          <mxGeometry relative="1" as="geometry" />
        </mxCell>
        <mxCell id="e9e4DZNa8HIGRZbQgJC5-34" value="Start Scheduler" style="rounded=1;whiteSpace=wrap;html=1;fillColor=#98FB98;" vertex="1" parent="1">
          <mxGeometry x="220" y="180" width="160" height="60" as="geometry" />
        </mxCell>
        <mxCell id="e9e4DZNa8HIGRZbQgJC5-35" style="edgeStyle=elbowEdgeStyle;rounded=1;" edge="1" parent="1" source="e9e4DZNa8HIGRZbQgJC5-29" target="e9e4DZNa8HIGRZbQgJC5-34">
          <mxGeometry relative="1" as="geometry" />
        </mxCell>
        <mxCell id="e9e4DZNa8HIGRZbQgJC5-36" value="Task: StateMachine" style="rounded=1;whiteSpace=wrap;html=1;fillColor=#FFB6C1;" vertex="1" parent="1">
          <mxGeometry x="20" y="280" width="160" height="60" as="geometry" />
        </mxCell>
        <mxCell id="e9e4DZNa8HIGRZbQgJC5-37" value="Task: EventGenerator" style="rounded=1;whiteSpace=wrap;html=1;fillColor=#FFB6C1;" vertex="1" parent="1">
          <mxGeometry x="220" y="280" width="160" height="60" as="geometry" />
        </mxCell>
        <mxCell id="e9e4DZNa8HIGRZbQgJC5-38" value="Function: handleState" style="rounded=1;whiteSpace=wrap;html=1;fillColor=#FFB6C1;" vertex="1" parent="1">
          <mxGeometry x="20" y="360" width="160" height="60" as="geometry" />
        </mxCell>
        <mxCell id="e9e4DZNa8HIGRZbQgJC5-39" style="edgeStyle=elbowEdgeStyle;rounded=1;" edge="1" parent="1" source="e9e4DZNa8HIGRZbQgJC5-36" target="e9e4DZNa8HIGRZbQgJC5-38">
          <mxGeometry relative="1" as="geometry" />
        </mxCell>
        <mxCell id="e9e4DZNa8HIGRZbQgJC5-40" value="Function: sendEvent" style="rounded=1;whiteSpace=wrap;html=1;fillColor=#FFB6C1;" vertex="1" parent="1">
          <mxGeometry x="220" y="360" width="160" height="60" as="geometry" />
        </mxCell>
        <mxCell id="e9e4DZNa8HIGRZbQgJC5-41" style="edgeStyle=elbowEdgeStyle;rounded=1;" edge="1" parent="1" source="e9e4DZNa8HIGRZbQgJC5-37" target="e9e4DZNa8HIGRZbQgJC5-40">
          <mxGeometry relative="1" as="geometry" />
        </mxCell>
        <mxCell id="e9e4DZNa8HIGRZbQgJC5-42" value="Condition: checkSystemHealth" style="rounded=1;whiteSpace=wrap;html=1;fillColor=#E6E6FA;" vertex="1" parent="1">
          <mxGeometry x="20" y="440" width="160" height="60" as="geometry" />
        </mxCell>
        <mxCell id="e9e4DZNa8HIGRZbQgJC5-43" value="Condition: checkStandbyRequest" style="rounded=1;whiteSpace=wrap;html=1;fillColor=#E6E6FA;" vertex="1" parent="1">
          <mxGeometry x="220" y="440" width="160" height="60" as="geometry" />
        </mxCell>
        <mxCell id="e9e4DZNa8HIGRZbQgJC5-44" value="Condition: checkActiveRequest" style="rounded=1;whiteSpace=wrap;html=1;fillColor=#E6E6FA;" vertex="1" parent="1">
          <mxGeometry x="420" y="440" width="160" height="60" as="geometry" />
        </mxCell>
        <mxCell id="e9e4DZNa8HIGRZbQgJC5-45" value="Condition: checkMaintenanceDone" style="rounded=1;whiteSpace=wrap;html=1;fillColor=#E6E6FA;" vertex="1" parent="1">
          <mxGeometry x="620" y="440" width="160" height="60" as="geometry" />
        </mxCell>
        <mxCell id="e9e4DZNa8HIGRZbQgJC5-46" value="Event: EVENT_ERROR" style="rounded=1;whiteSpace=wrap;html=1;fillColor=#FF6347;" vertex="1" parent="1">
          <mxGeometry x="20" y="520" width="160" height="60" as="geometry" />
        </mxCell>
        <mxCell id="e9e4DZNa8HIGRZbQgJC5-47" value="Event: EVENT_DEACTIVATE" style="rounded=1;whiteSpace=wrap;html=1;fillColor=#FF6347;" vertex="1" parent="1">
          <mxGeometry x="220" y="520" width="160" height="60" as="geometry" />
        </mxCell>
        <mxCell id="e9e4DZNa8HIGRZbQgJC5-48" value="Event: EVENT_ACTIVATE" style="rounded=1;whiteSpace=wrap;html=1;fillColor=#FF6347;" vertex="1" parent="1">
          <mxGeometry x="420" y="520" width="160" height="60" as="geometry" />
        </mxCell>
        <mxCell id="e9e4DZNa8HIGRZbQgJC5-49" value="Event: EVENT_RECOVER" style="rounded=1;whiteSpace=wrap;html=1;fillColor=#FF6347;" vertex="1" parent="1">
          <mxGeometry x="620" y="520" width="160" height="60" as="geometry" />
        </mxCell>
      </root>
    </mxGraphModel>
  </diagram>
</mxfile>
